<svg width="364" height="63" viewBox="0 0 364 63" fill="none" xmlns="http://www.w3.org/2000/svg">
<path d="M40.13 48.61C38.37 58.26 30.56 62.46 20.57 62.29C14.19 62.12 5.21 60.11 0 56.41V45.33H1.02C3.54 55.82 12.6 60.61 20.58 60.77C27.38 60.94 33.34 58.17 34.77 51.37C38.29 33.75 -0.83 35.68 3.62 13.36C5.13 5.72002 11.34 1.77002 19.99 1.77002C26.12 1.77002 31.74 3.95002 37.11 8.07002V18.56H36.19C33.59 8.07002 27.96 3.28002 19.99 3.28002C14.2 3.28002 8.74 6.30002 8.07 12.6C6.22 29.14 43.58 29.89 40.13 48.61Z" fill="#444144"/>
<path d="M68.4198 58.77C67.1598 60.28 64.3898 62.3 61.1198 62.3C55.9098 62.3 51.2198 59.45 51.2198 50.63V23.26H44.5898V21.75C51.8898 21.75 54.7498 16.88 55.3298 10.75H56.7598V21.75H66.3298V23.26H56.7598V50.62C56.7598 55.4 58.0998 58.17 60.5398 59.35C62.8098 60.36 65.5798 59.94 67.9298 57.92L68.4298 58.76L68.4198 58.77Z" fill="#444144"/>
<path d="M113.829 60.45V61.46H104.349V54.91C101.829 59.36 97.7993 62.3 91.9293 62.3C82.9493 62.3 75.8093 57.43 75.8093 46.35V29.89C75.8093 26.62 74.9693 24.85 71.7793 24.6V23.59L80.5093 20.9H81.2593V45.83C81.2593 53.72 84.1993 60.85 93.0993 60.77C99.2293 60.77 104.349 54.81 104.349 49.19V29.89C104.349 26.62 103.509 24.85 100.399 24.6V23.59L109.129 20.9H109.799V55.16C109.799 58.52 110.639 60.2 113.829 60.45Z" fill="#444144"/>
<path d="M163.259 60.7C162.669 61.2 160.739 62.3 158.219 62.3C154.859 62.3 152.089 60.62 152.089 57.09V53.73C149.239 59.19 144.279 62.29 138.239 62.29C127.659 62.29 119.689 54.15 119.689 41.64C119.689 29.13 127.659 20.91 138.239 20.91C144.279 20.91 149.239 24.02 152.089 29.56V8.99C152.089 5.72 151.249 4.04 148.139 3.7V2.69L156.869 0H157.619V56.84C157.619 60.11 160.309 60.78 162.989 59.95L163.239 60.7H163.259ZM152.099 41.65C152.099 29.48 146.309 22.18 138.249 22.18C130.189 22.18 125.489 29.99 125.489 41.65C125.489 53.31 130.189 61.04 138.249 61.04C146.309 61.04 152.099 53.74 152.099 41.65Z" fill="#444144"/>
<path d="M180.469 61.45H167.039V60.44C170.149 60.19 170.989 58.43 170.989 55.15V29.89C170.989 26.62 170.149 24.85 167.039 24.6V23.59L175.769 20.9H176.439V55.16C176.439 58.43 177.279 60.2 180.469 60.45V61.46V61.45ZM168.889 9.91C168.889 7.31 170.819 5.88 172.999 5.88C175.179 5.88 177.199 7.31 177.199 9.91C177.199 12.51 175.269 14.02 172.999 14.02C170.729 14.02 168.889 12.51 168.889 9.91Z" fill="#444144"/>
<path d="M226.38 41.64C226.38 54.48 217.23 62.29 206.15 62.29C195.07 62.29 185.92 54.48 185.92 41.64C185.92 28.8 194.99 20.91 206.15 20.91C217.31 20.91 226.38 28.72 226.38 41.64ZM220.59 41.64C220.59 29.55 214.63 22.17 206.15 22.17C197.67 22.17 191.71 29.56 191.71 41.64C191.71 53.72 197.67 61.03 206.15 61.03C214.63 61.03 220.59 53.64 220.59 41.64Z" fill="#444144"/>
<path d="M292.179 47.27C291.009 56 283.869 62.3 271.279 62.3C259.529 62.3 249.879 56.26 249.879 45.85C249.879 37.29 256.849 31.58 265.329 29.99C257.019 26.3 253.159 21.26 254.079 14.29C254.999 6.65 262.219 1.87 271.289 1.87C280.359 1.87 288.829 6.99 289.079 14.8C289.329 22.52 283.119 27.14 275.569 28.73C287.659 32.51 293.359 37.96 292.189 47.28L292.179 47.27ZM267.919 31.32C261.209 32.75 256.169 37.61 255.669 45.09C255.079 55.75 264.149 60.87 271.869 60.87C280.349 60.87 286.219 56.34 286.899 47.86C287.659 37.95 278.509 34.51 267.929 31.32H267.919ZM273.039 27.54C279.329 25.69 284.199 21.92 284.199 15.03C284.199 8.14 279.249 3.36 271.859 3.36C264.469 3.36 258.679 7.73 258.849 15.2C259.019 21.33 264.469 25.02 273.039 27.54Z" fill="#444144"/>
<path d="M315.01 61.4499H301.66V60.4399C304.77 60.1899 305.61 58.5099 305.61 55.2299V9.23994H301.16V8.22994L310.31 2.68994H310.98V55.2399C310.98 58.5099 311.82 60.1899 315.01 60.4499V61.4599V61.4499Z" fill="#444144"/>
<path d="M342.04 62.29C333.9 62.62 327.52 58.76 325.92 55.07C325.16 53.39 325.08 51.63 326.51 50.45C327.6 49.53 329.36 49.53 330.29 50.45C331.3 51.37 331.55 52.88 331.63 53.98C331.8 57.59 335.49 61.37 342.21 60.86C351.19 60.19 357.32 51.54 358.49 30.73C354.8 36.44 348.75 39.54 342.88 39.71C332.14 39.96 323.24 32.74 323.49 21.08C323.82 9.40998 332.3 1.85999 343.13 1.85999C353.96 1.85999 363.02 9.32998 363.61 23.43C364.62 45.93 356.64 61.62 342.04 62.29ZM358.16 21.08C358.16 10.25 351.36 3.36999 343.13 3.36999C334.9 3.36999 328.939 10.25 328.939 21.08C328.939 31.91 334.82 37.95 343.13 37.95C351.44 37.95 358.16 31.91 358.16 21.08Z" fill="#444144"/>
</svg>
